<?xml version="1.0" encoding="utf-8"?>
<!-- Generator: Adobe Illustrator 16.0.0, SVG Export Plug-In . SVG Version: 6.00 Build 0)  -->
<!DOCTYPE svg PUBLIC "-//W3C//DTD SVG 1.1//EN" "http://www.w3.org/Graphics/SVG/1.1/DTD/svg11.dtd">
<svg version="1.1" id="Layer_1" xmlns="http://www.w3.org/2000/svg" xmlns:xlink="http://www.w3.org/1999/xlink" x="0px" y="0px"
	 width="72px" height="72px" viewBox="0 0 72 72" enable-background="new 0 0 72 72" xml:space="preserve">
<path fill="#939598" d="M62.519,0.001H9.212C4.147,0.001,0,4.137,0,9.19v53.324c0,5.054,4.147,9.184,9.212,9.184h53.307
	c5.065,0,9.209-4.13,9.209-9.184V9.19C71.729,4.137,67.584,0.001,62.519,0.001 M51.245,11.253c0-1.496,1.221-2.72,2.723-2.72h6.509
	c1.493,0,2.72,1.224,2.72,2.72v6.498c0,1.496-1.227,2.714-2.72,2.714h-6.509c-1.501,0-2.723-1.218-2.723-2.714V11.253z
	 M35.863,20.487c8.487,0,15.368,6.867,15.368,15.343S44.35,51.178,35.863,51.178S20.495,44.306,20.495,35.83
	S27.376,20.487,35.863,20.487 M64.947,62.016c0,1.563-1.28,2.839-2.85,2.839H9.711c-1.572,0-2.853-1.275-2.853-2.839V30.702h7.388
	c-0.385,1.638-0.612,3.343-0.612,5.104c0,12.272,9.968,22.221,22.254,22.221c12.297,0,22.254-9.948,22.254-22.221
	c0-1.762-0.25-3.467-0.637-5.104h7.441V62.016z"/>
</svg>
