<?xml version="1.0" encoding="utf-8"?>
<!-- Generator: Adobe Illustrator 16.0.0, SVG Export Plug-In . SVG Version: 6.00 Build 0)  -->
<!DOCTYPE svg PUBLIC "-//W3C//DTD SVG 1.1//EN" "http://www.w3.org/Graphics/SVG/1.1/DTD/svg11.dtd">
<svg version="1.1" id="Layer_1" xmlns="http://www.w3.org/2000/svg" xmlns:xlink="http://www.w3.org/1999/xlink" x="0px" y="0px"
	 width="72px" height="72px" viewBox="0 0 72 72" enable-background="new 0 0 72 72" xml:space="preserve">
<path fill="#939598" d="M47.705,60.144c-2.045,0-3.861-0.479-5.451-1.425c-1.203-0.71-2.297-1.926-2.734-3.11
	c-0.445-1.177-0.393-3.573-0.393-7.749V29.44h16.609V16.616H39.127V0H28.908c-0.461,3.705-1.297,6.761-2.514,9.157
	c-1.217,2.399-2.828,4.451-4.85,6.169c-2.008,1.711-5.277,3.026-8.105,3.94V29.44h9.76v25.194c0,3.284,0.348,5.796,1.039,7.526
	c0.688,1.728,1.92,3.361,3.707,4.902c1.779,1.518,3.932,2.711,6.455,3.548c2.525,0.823,4.455,1.235,7.75,1.235
	c2.889,0,5.58-0.292,8.072-0.872c2.484-0.589,5.27-1.599,8.338-3.046V56.6C54.961,58.963,51.344,60.144,47.705,60.144"/>
</svg>
