<?xml version="1.0" encoding="utf-8"?>
<!-- Generator: Adobe Illustrator 16.0.0, SVG Export Plug-In . SVG Version: 6.00 Build 0)  -->
<!DOCTYPE svg PUBLIC "-//W3C//DTD SVG 1.1//EN" "http://www.w3.org/Graphics/SVG/1.1/DTD/svg11.dtd">
<svg version="1.1" id="Layer_1" xmlns="http://www.w3.org/2000/svg" xmlns:xlink="http://www.w3.org/1999/xlink" x="0px" y="0px"
	 width="36px" height="36px" viewBox="0 0 36 36" enable-background="new 0 0 36 36" xml:space="preserve">
<g id="Cart">
	<g>
		<path fill="#3F3F3F" d="M33.969,2.758c-0.133-0.535-0.677-0.863-1.213-0.728l-4.004,1c-0.39,0.098-0.684,0.418-0.746,0.814
			l-0.507,3.208L2.85,10.008c-0.02,0.002-0.035,0.016-0.055,0.02c-0.023,0.004-0.045-0.003-0.068,0.003
			c-0.057,0.015-0.1,0.049-0.15,0.071c-0.056,0.024-0.11,0.043-0.16,0.076c-0.071,0.048-0.127,0.109-0.184,0.173
			c-0.027,0.031-0.064,0.049-0.088,0.083c-0.006,0.008-0.006,0.018-0.01,0.026c-0.055,0.084-0.086,0.178-0.113,0.273
			c-0.01,0.035-0.031,0.065-0.037,0.101c-0.021,0.132-0.021,0.271,0.014,0.409l3.004,12l1,4c0.008,0.029,0.025,0.052,0.035,0.079
			c0.016,0.048,0.037,0.092,0.061,0.137c0.033,0.065,0.074,0.125,0.122,0.181c0.029,0.035,0.059,0.069,0.093,0.1
			c0.06,0.053,0.125,0.094,0.194,0.131c0.036,0.02,0.068,0.043,0.107,0.058C6.728,27.973,6.848,28,6.973,28h21.021
			c0.553,0,1-0.447,1-0.999c0-0.553-0.447-1.001-1-1.001H7.754l-0.5-2h18.738c0.123,0,0.242-0.022,0.352-0.064
			c0.045-0.017,0.08-0.048,0.121-0.07c0.062-0.033,0.126-0.062,0.179-0.107c0.039-0.034,0.065-0.08,0.1-0.12
			c0.042-0.05,0.089-0.094,0.122-0.151c0.029-0.052,0.039-0.113,0.059-0.171c0.02-0.053,0.047-0.102,0.057-0.159l0.004-0.021v-0.01
			L29.881,4.81l3.36-0.839C33.777,3.837,34.104,3.294,33.969,2.758z M6.754,22L4.215,11.858l3.104-0.372L8.822,22H6.754z M10.844,22
			L9.308,11.248l3.119-0.374L12.932,22H10.844z M17.025,22h-2.088L14.42,10.635l3.116-0.373L17.025,22z M21.104,22h-2.074
			l0.521-11.98l3.1-0.371L21.104,22z M25.115,22h-1.994l1.576-12.598l2.133-0.255L25.115,22z M10.977,30
			c-1.105,0-2.002,0.896-2.002,2.001c0,1.104,0.896,1.999,2.002,1.999s2.002-0.895,2.002-1.999C12.979,30.896,12.082,30,10.977,30z
			 M23.99,30c-1.105,0-2.002,0.896-2.002,2.001c0,1.104,0.896,1.999,2.002,1.999s2.002-0.895,2.002-1.999
			C25.992,30.896,25.096,30,23.99,30z"/>
	</g>
</g>
</svg>
